# WaveFront *.obj file (generated by Cheetah3D)

mtllib atmosphere.mtl

g atmosphere
v 0.000000 0.000000 0.250000
v 0.000000 0.000000 0.500000
v 0.000000 0.097545 0.490393
v 0.000000 0.048772 0.245197
v 0.000000 0.191342 0.461940
v 0.000000 0.095671 0.230970
v 0.000000 0.277785 0.415735
v 0.000000 0.138893 0.207868
v 0.000000 0.353553 0.353554
v 0.000000 0.176776 0.176776
v 0.000000 0.415734 0.277785
v 0.000000 0.207867 0.138893
v 0.000000 0.461940 0.191342
v 0.000000 0.230970 0.095671
v 0.000000 0.490393 0.097545
v 0.000000 0.245196 0.048772
v 0.000000 0.499999 0.000000
v 0.000000 0.250000 0.000000
v 0.000000 0.490392 -0.097545
v 0.000000 0.245196 -0.048772
v 0.000000 0.461940 -0.191342
v 0.000000 0.230970 -0.095671
v 0.000000 0.415734 -0.277785
v 0.000000 0.207867 -0.138893
v 0.000000 0.353553 -0.353554
v 0.000000 0.176776 -0.176776
v 0.000000 0.277785 -0.415735
v 0.000000 0.138893 -0.207868
v 0.000000 0.191342 -0.461940
v 0.000000 0.095670 -0.230970
v 0.000000 0.097545 -0.490393
v 0.000000 0.048772 -0.245197
v 0.000000 0.000000 -0.500000
v 0.000000 0.000000 -0.250000
v 0.000000 -0.097545 -0.490393
v 0.000000 -0.048772 -0.245197
v 0.000000 -0.191342 -0.461940
v 0.000000 -0.095671 -0.230970
v 0.000000 -0.277785 -0.415735
v 0.000000 -0.138893 -0.207868
v 0.000000 -0.353553 -0.353554
v 0.000000 -0.176776 -0.176776
v 0.000000 -0.415734 -0.277785
v 0.000000 -0.207868 -0.138893
v 0.000000 -0.461940 -0.191342
v 0.000000 -0.230970 -0.095671
v 0.000000 -0.490392 -0.097545
v 0.000000 -0.245196 -0.048772
v 0.000000 -0.499999 0.000000
v 0.000000 -0.250000 0.000000
v 0.000000 -0.490392 0.097545
v 0.000000 -0.245196 0.048772
v 0.000000 -0.461940 0.191342
v 0.000000 -0.230970 0.095671
v 0.000000 -0.415734 0.277785
v 0.000000 -0.207867 0.138893
v 0.000000 -0.353553 0.353554
v 0.000000 -0.176776 0.176777
v 0.000000 -0.277785 0.415735
v 0.000000 -0.138893 0.207868
v 0.000000 -0.191342 0.461940
v 0.000000 -0.095671 0.230970
v 0.000000 -0.097545 0.490393
v 0.000000 -0.048772 0.245197
v -0.005000 0.000000 0.250000
v -0.005000 0.048772 0.245197
v -0.005000 0.095671 0.230970
v -0.005000 0.138893 0.207868
v -0.005000 0.176776 0.176776
v -0.005000 0.207867 0.138893
v -0.005000 0.230970 0.095671
v -0.005000 0.245196 0.048772
v -0.005000 0.250000 0.000000
v -0.005000 0.245196 -0.048772
v -0.005000 0.230970 -0.095671
v -0.005000 0.207867 -0.138893
v -0.005000 0.176776 -0.176776
v -0.005000 0.138893 -0.207868
v -0.005000 0.095670 -0.230970
v -0.005000 0.048772 -0.245197
v -0.005000 0.000000 -0.250000
v -0.005000 -0.048772 -0.245197
v -0.005000 -0.095671 -0.230970
v -0.005000 -0.138893 -0.207868
v -0.005000 -0.176776 -0.176776
v -0.005000 -0.207868 -0.138893
v -0.005000 -0.230970 -0.095671
v -0.005000 -0.230970 0.095671
v -0.005000 -0.207867 0.138893
v -0.005000 -0.176776 0.176777
v -0.005000 -0.138893 0.207868
v -0.005000 -0.095671 0.230970
v -0.005000 -0.048772 0.245197

vt 0.031250 1.000000
vt 0.000000 1.000000
vt 0.000000 0.000000
vt 0.597545 0.009607
vt 0.548773 0.254804
vt 0.500000 0.250000
vt 0.691342 0.038060
vt 0.595671 0.269030
vt 0.777785 0.084265
vt 0.638893 0.292133
vt 0.853553 0.146447
vt 0.676777 0.323223
vt 0.915735 0.222215
vt 0.707867 0.361107
vt 0.961940 0.308658
vt 0.730970 0.404329
vt 0.990393 0.402455
vt 0.745196 0.451227
vt 1.000000 0.500000
vt 0.750000 0.500000
vt 0.990393 0.597545
vt 0.745196 0.548773
vt 0.961940 0.691342
vt 0.730970 0.595671
vt 0.915735 0.777785
vt 0.707867 0.638893
vt 0.853553 0.853553
vt 0.676777 0.676777
vt 0.777785 0.915735
vt 0.638893 0.707867
vt 0.691342 0.961940
vt 0.595671 0.730970
vt 0.597545 0.990393
vt 0.548773 0.745196
vt 0.500000 1.000000
vt 0.500000 0.750000
vt 0.402455 0.990393
vt 0.451227 0.745196
vt 0.308658 0.961940
vt 0.404329 0.730970
vt 0.222215 0.915735
vt 0.361107 0.707867
vt 0.146447 0.853553
vt 0.323223 0.676777
vt 0.084265 0.777785
vt 0.292133 0.638893
vt 0.038060 0.691342
vt 0.269030 0.595671
vt 0.009607 0.597545
vt 0.254804 0.548773
vt 0.000000 0.500000
vt 0.250000 0.500000
vt 0.009607 0.402455
vt 0.254804 0.451227
vt 0.038060 0.308658
vt 0.269030 0.404329
vt 0.084265 0.222215
vt 0.292133 0.361107
vt 0.146447 0.146446
vt 0.323223 0.323223
vt 0.222215 0.084265
vt 0.361107 0.292133
vt 0.308658 0.038060
vt 0.404329 0.269030
vt 0.402455 0.009607
vt 0.451227 0.254804
vt 0.500000 0.000000
vt 0.968750 0.000000
vt 1.000000 0.000000
vt 1.000000 1.000000
vt 0.968750 1.000000
vt 0.937500 0.000000
vt 0.937500 1.000000
vt 0.906250 0.000000
vt 0.906250 1.000000
vt 0.875000 0.000000
vt 0.875000 1.000000
vt 0.843750 0.000000
vt 0.843750 1.000000
vt 0.812500 0.000000
vt 0.812500 1.000000
vt 0.656250 0.000000
vt 0.687500 0.000000
vt 0.687500 1.000000
vt 0.656250 1.000000
vt 0.625000 0.000000
vt 0.625000 1.000000
vt 0.593750 0.000000
vt 0.593750 1.000000
vt 0.562500 0.000000
vt 0.562500 1.000000
vt 0.531250 0.000000
vt 0.531250 1.000000
vt 0.468750 0.000000
vt 0.468750 1.000000
vt 0.437500 0.000000
vt 0.437500 1.000000
vt 0.406250 0.000000
vt 0.406250 1.000000
vt 0.375000 0.000000
vt 0.375000 1.000000
vt 0.343750 0.000000
vt 0.343750 1.000000
vt 0.312500 0.000000
vt 0.312500 1.000000
vt 0.281250 0.000000
vt 0.281250 1.000000
vt 0.250000 0.000000
vt 0.250000 1.000000
vt 0.218750 0.000000
vt 0.218750 1.000000
vt 0.187500 0.000000
vt 0.187500 1.000000
vt 0.156250 0.000000
vt 0.156250 1.000000
vt 0.125000 0.000000
vt 0.125000 1.000000
vt 0.093750 0.000000
vt 0.093750 1.000000
vt 0.062500 0.000000
vt 0.062500 1.000000
vt 0.031250 0.000000

vn 0.000000 -0.162801 -0.986659
vn 0.000000 0.032812 -0.999462
vn 0.000000 -0.032812 -0.999462
vn 1.000000 0.000000 0.000000
vn 0.000000 0.162801 -0.986659
vn 0.000000 0.227166 -0.973856
vn 0.000000 0.352163 -0.935939
vn 0.000000 0.412794 -0.910825
vn 0.000000 0.527989 -0.849251
vn 0.000000 0.582554 -0.812792
vn 0.000000 0.683525 -0.729927
vn 0.000000 0.729932 -0.683520
vn 0.000000 0.812795 -0.582550
vn 0.000000 0.849252 -0.527987
vn 0.000000 0.881920 -0.471399
vn 0.000000 0.849253 0.527986
vn 0.000000 0.881924 0.471391
vn 0.000000 0.812791 0.582556
vn 0.000000 0.729927 0.683526
vn 0.000000 0.683526 0.729927
vn 0.000000 0.582558 0.812789
vn 0.000000 0.527991 0.849250
vn 0.000000 0.412794 0.910825
vn 0.000000 0.352163 0.935939
vn 0.000000 0.227166 0.973856
vn 0.000000 0.162801 0.986659
vn 0.000000 0.032812 0.999462
vn 0.000000 -0.032812 0.999462
vn 0.000000 -0.162802 0.986659
vn 0.000000 -0.227168 0.973855
vn 0.000000 -0.352163 0.935939
vn 0.000000 -0.412792 0.910825
vn 0.000000 -0.527989 0.849252
vn 0.000000 -0.582557 0.812790
vn 0.000000 -0.683527 0.729925
vn 0.000000 -0.729930 0.683522
vn 0.000000 -0.812792 0.582554
vn 0.000000 -0.849251 0.527989
vn 0.000000 -0.910825 0.412794
vn 0.000000 -0.935939 0.352163
vn 0.000000 -0.973855 0.227170
vn 0.000000 -0.986658 0.162807
vn 0.000000 -0.999461 0.032815
vn 0.000000 -0.999461 -0.032815
vn 0.000000 -0.986658 -0.162807
vn 0.000000 -0.973855 -0.227170
vn 0.000000 -0.935939 -0.352163
vn 0.000000 -0.910825 -0.412794
vn 0.000000 -0.849251 -0.527989
vn 0.000000 -0.812792 -0.582554
vn 0.000000 -0.729930 -0.683522
vn 0.000000 -0.683527 -0.729925
vn 0.000000 -0.582558 -0.812789
vn 0.000000 -0.527991 -0.849250
vn 0.000000 -0.412794 -0.910825
vn 0.000000 -0.352163 -0.935939
vn 0.000000 -0.227166 -0.973856

usemtl atmosphere
f 1/3/3 65/2/2 66/1/1
f 1/6/4 4/5/4 3/4/4
f 5/7/4 3/4/4 4/5/4
f 4/5/4 6/8/4 5/7/4
f 7/9/4 5/7/4 6/8/4
f 6/8/4 8/10/4 7/9/4
f 9/11/4 7/9/4 8/10/4
f 8/10/4 10/12/4 9/11/4
f 11/13/4 9/11/4 10/12/4
f 10/12/4 12/14/4 11/13/4
f 13/15/4 11/13/4 12/14/4
f 12/14/4 14/16/4 13/15/4
f 15/17/4 13/15/4 14/16/4
f 14/16/4 16/18/4 15/17/4
f 17/19/4 15/17/4 16/18/4
f 16/18/4 18/20/4 17/19/4
f 19/21/4 17/19/4 18/20/4
f 18/20/4 20/22/4 19/21/4
f 21/23/4 19/21/4 20/22/4
f 20/22/4 22/24/4 21/23/4
f 23/25/4 21/23/4 22/24/4
f 22/24/4 24/26/4 23/25/4
f 25/27/4 23/25/4 24/26/4
f 24/26/4 26/28/4 25/27/4
f 27/29/4 25/27/4 26/28/4
f 26/28/4 28/30/4 27/29/4
f 29/31/4 27/29/4 28/30/4
f 28/30/4 30/32/4 29/31/4
f 31/33/4 29/31/4 30/32/4
f 30/32/4 32/34/4 31/33/4
f 33/35/4 31/33/4 32/34/4
f 32/34/4 34/36/4 33/35/4
f 35/37/4 33/35/4 34/36/4
f 34/36/4 36/38/4 35/37/4
f 37/39/4 35/37/4 36/38/4
f 36/38/4 38/40/4 37/39/4
f 39/41/4 37/39/4 38/40/4
f 38/40/4 40/42/4 39/41/4
f 41/43/4 39/41/4 40/42/4
f 40/42/4 42/44/4 41/43/4
f 43/45/4 41/43/4 42/44/4
f 42/44/4 44/46/4 43/45/4
f 45/47/4 43/45/4 44/46/4
f 44/46/4 46/48/4 45/47/4
f 47/49/4 45/47/4 46/48/4
f 46/48/4 48/50/4 47/49/4
f 49/51/4 47/49/4 48/50/4
f 48/50/4 50/52/4 49/51/4
f 51/53/4 49/51/4 50/52/4
f 50/52/4 52/54/4 51/53/4
f 53/55/4 51/53/4 52/54/4
f 52/54/4 54/56/4 53/55/4
f 55/57/4 53/55/4 54/56/4
f 54/56/4 56/58/4 55/57/4
f 57/59/4 55/57/4 56/58/4
f 56/58/4 58/60/4 57/59/4
f 59/61/4 57/59/4 58/60/4
f 58/60/4 60/62/4 59/61/4
f 61/63/4 59/61/4 60/62/4
f 60/62/4 62/64/4 61/63/4
f 63/65/4 61/63/4 62/64/4
f 62/64/4 64/66/4 63/65/4
f 2/67/4 63/65/4 64/66/4
f 64/66/4 1/6/4 2/67/4
f 65/70/2 1/69/3 64/68/5
f 64/68/5 93/71/6 65/70/2
f 93/71/6 64/68/5 62/72/7
f 62/72/7 92/73/8 93/71/6
f 92/73/8 62/72/7 60/74/9
f 60/74/9 91/75/10 92/73/8
f 91/75/10 60/74/9 58/76/11
f 58/76/11 90/77/12 91/75/10
f 90/77/12 58/76/11 56/78/13
f 56/78/13 89/79/14 90/77/12
f 89/79/14 56/78/13 54/80/15
f 54/80/15 88/81/15 89/79/14
f 87/84/17 46/83/17 44/82/16
f 44/82/16 86/85/18 87/84/17
f 86/85/18 44/82/16 42/86/19
f 42/86/19 85/87/20 86/85/18
f 85/87/20 42/86/19 40/88/21
f 40/88/21 84/89/22 85/87/20
f 84/89/22 40/88/21 38/90/23
f 38/90/23 83/91/24 84/89/22
f 83/91/24 38/90/23 36/92/25
f 36/92/25 82/93/26 83/91/24
f 82/93/26 36/92/25 34/67/27
f 34/67/27 81/35/28 82/93/26
f 81/35/28 34/67/27 32/94/29
f 32/94/29 80/95/30 81/35/28
f 80/95/30 32/94/29 30/96/31
f 30/96/31 79/97/32 80/95/30
f 79/97/32 30/96/31 28/98/33
f 28/98/33 78/99/34 79/97/32
f 78/99/34 28/98/33 26/100/35
f 26/100/35 77/101/36 78/99/34
f 77/101/36 26/100/35 24/102/37
f 24/102/37 76/103/38 77/101/36
f 76/103/38 24/102/37 22/104/39
f 22/104/39 75/105/40 76/103/38
f 75/105/40 22/104/39 20/106/41
f 20/106/41 74/107/42 75/105/40
f 74/107/42 20/106/41 18/108/43
f 18/108/43 73/109/44 74/107/42
f 73/109/44 18/108/43 16/110/45
f 16/110/45 72/111/46 73/109/44
f 72/111/46 16/110/45 14/112/47
f 14/112/47 71/113/48 72/111/46
f 71/113/48 14/112/47 12/114/49
f 12/114/49 70/115/50 71/113/48
f 70/115/50 12/114/49 10/116/51
f 10/116/51 69/117/52 70/115/50
f 69/117/52 10/116/51 8/118/53
f 8/118/53 68/119/54 69/117/52
f 68/119/54 8/118/53 6/120/55
f 6/120/55 67/121/56 68/119/54
f 67/121/56 6/120/55 4/122/57
f 4/122/57 66/1/1 67/121/56
f 66/1/1 4/122/57 1/3/3
f 3/4/4 2/67/4 1/6/4

usemtl default

